<svg xmlns="http://www.w3.org/2000/svg" width="11" height="11" viewBox="0 0 11 11">
  <path fill="#ffffff" fill-rule="evenodd" d="M181.207107,20.5 L185.10062,16.6064869 C185.290196,16.4169104 185.291456,16.0990681 185.096194,15.9038059 C184.906643,15.7142543 184.586331,15.7065623 184.393513,15.8993802 L180.5,19.7928932 L176.606487,15.8993802 C176.41691,15.7098036 176.099068,15.7085438 175.903806,15.9038059 C175.714254,16.0933575 175.706562,16.4136691 175.89938,16.6064869 L179.792893,20.5 L175.89938,24.3935131 C175.709804,24.5830896 175.708544,24.9009319 175.903806,25.0961941 C176.093357,25.2857457 176.413669,25.2934377 176.606487,25.1006198 L180.5,21.2071068 L184.393513,25.1006198 C184.58309,25.2901964 184.900932,25.2914562 185.096194,25.0961941 C185.285746,24.9066425 185.293438,24.5863309 185.10062,24.3935131 L181.207107,20.5 L181.207107,20.5 Z" transform="translate(-175 -15)"/>
</svg>
